<svg xmlns="http://www.w3.org/2000/svg" width="3000" height="3753" viewBox="0 0 3000 3753.11">
  <g fill="#FFFFFF" fill-rule="evenodd">
    <path d="M 1060.43 3056.02 L 1051.87 3064.57 L 1051.87 3084.02 L 1064.32 3095.70 L 1064.32 3102.70 L 1070.54 3108.14 L 1070.54 3115.15 L 1076.76 3120.59 L 1076.76 3127.59 L 1089.21 3139.26 L 1089.21 3146.27 L 1095.44 3151.71 L 1095.44 3158.71 L 1101.66 3164.16 L 1101.66 3171.16 L 1114.11 3182.83 L 1114.11 3189.83 L 1120.33 3195.28 L 1120.33 3202.28 L 1126.56 3207.73 L 1126.56 3214.73 L 1139.00 3226.40 L 1139.00 3233.40 L 1145.23 3238.85 L 1145.23 3245.85 L 1151.45 3251.30 L 1151.45 3258.30 L 1163.90 3269.97 L 1163.90 3276.97 L 1170.12 3282.42 L 1170.12 3289.42 L 1176.35 3294.87 L 1176.35 3301.87 L 1188.80 3313.54 L 1188.80 3320.54 L 1195.02 3325.99 L 1195.02 3332.99 L 1201.24 3338.43 L 1201.24 3345.44 L 1213.69 3357.11 L 1213.69 3364.11 L 1219.92 3369.55 L 1219.92 3376.56 L 1226.14 3382.00 L 1226.14 3389.00 L 1238.59 3400.67 L 1238.59 3407.68 L 1244.81 3413.12 L 1244.81 3420.12 L 1257.26 3431.79 L 1257.26 3438.80 L 1263.49 3444.24 L 1263.49 3451.24 L 1269.71 3456.69 L 1269.71 3463.69 L 1282.16 3475.36 L 1282.16 3482.37 L 1288.38 3487.81 L 1288.38 3494.81 L 1294.61 3500.26 L 1294.61 3507.26 L 1307.05 3518.93 L 1307.05 3525.93 L 1313.28 3531.38 L 1313.28 3538.38 L 1319.50 3543.83 L 1319.50 3550.83 L 1325.73 3556.28 L 1325.73 3563.28 L 1338.17 3574.95 L 1338.17 3581.95 L 1344.40 3587.40 L 1344.40 3594.40 L 1356.85 3606.07 L 1356.85 3613.07 L 1363.07 3618.52 L 1363.07 3625.52 L 1369.29 3630.96 L 1369.29 3637.97 L 1375.52 3643.41 L 1375.52 3650.41 L 1384.08 3658.97 L 1403.53 3658.97 L 1405.86 3656.64 L 1405.86 3649.64 L 1412.09 3644.19 L 1412.09 3637.19 L 1424.53 3625.52 L 1424.53 3618.52 L 1430.76 3613.07 L 1430.76 3606.07 L 1436.98 3600.62 L 1436.98 3593.62 L 1443.21 3588.17 L 1443.21 3581.17 L 1455.65 3569.50 L 1455.65 3562.50 L 1461.88 3557.05 L 1461.88 3550.05 L 1474.33 3538.38 L 1474.33 3531.38 L 1480.55 3525.93 L 1480.55 3518.93 L 1486.77 3513.49 L 1486.77 3506.48 L 1499.22 3494.81 L 1499.22 3487.81 L 1505.45 3482.37 L 1505.45 3475.36 L 1517.89 3463.69 L 1517.89 3456.69 L 1524.12 3451.24 L 1524.12 3444.24 L 1530.34 3438.80 L 1530.34 3431.79 L 1542.79 3420.12 L 1542.79 3413.12 L 1549.01 3407.68 L 1549.01 3400.67 L 1555.24 3395.23 L 1555.24 3388.23 L 1561.46 3382.78 L 1561.46 3375.78 L 1573.91 3364.11 L 1573.91 3357.11 L 1580.13 3351.66 L 1580.13 3344.66 L 1592.58 3332.99 L 1592.58 3325.99 L 1598.81 3320.54 L 1598.81 3313.54 L 1605.03 3308.09 L 1605.03 3301.09 L 1611.26 3295.64 L 1611.26 3288.64 L 1623.70 3276.97 L 1623.70 3269.97 L 1629.93 3264.52 L 1629.93 3257.52 L 1636.15 3252.07 L 1636.15 3245.07 L 1648.60 3233.40 L 1648.60 3226.40 L 1654.82 3220.95 L 1654.82 3213.95 L 1661.05 3208.51 L 1661.05 3201.50 L 1673.50 3189.83 L 1673.50 3182.83 L 1679.72 3177.39 L 1679.72 3170.38 L 1685.94 3164.94 L 1685.94 3157.94 L 1698.39 3146.27 L 1698.39 3139.26 L 1704.62 3133.82 L 1704.62 3126.82 L 1710.84 3121.37 L 1710.84 3114.37 L 1723.29 3102.70 L 1723.29 3095.70 L 1729.51 3090.25 L 1729.51 3083.25 L 1735.74 3077.80 L 1735.74 3064.57 L 1727.18 3056.02 Z" />
    <path d="M 1397.30 2159.75 L 1390.30 2159.75 L 1369.29 2180.76 L 1369.29 2187.76 L 1363.07 2193.21 L 1363.07 2200.21 L 1356.85 2205.65 L 1356.85 2212.66 L 1344.40 2224.33 L 1344.40 2231.33 L 1338.17 2236.77 L 1338.17 2243.78 L 1331.95 2249.22 L 1331.95 2256.22 L 1319.50 2267.89 L 1319.50 2274.90 L 1313.28 2280.34 L 1313.28 2287.34 L 1300.83 2299.01 L 1300.83 2306.02 L 1294.61 2311.46 L 1294.61 2318.46 L 1288.38 2323.91 L 1288.38 2330.91 L 1275.93 2342.58 L 1275.93 2349.59 L 1269.71 2355.03 L 1269.71 2362.03 L 1263.49 2367.48 L 1263.49 2374.48 L 1257.26 2379.93 L 1257.26 2386.93 L 1244.81 2398.60 L 1244.81 2405.60 L 1238.59 2411.05 L 1238.59 2418.05 L 1232.37 2423.50 L 1232.37 2430.50 L 1219.92 2442.17 L 1219.92 2449.17 L 1213.69 2454.62 L 1213.69 2461.62 L 1207.47 2467.06 L 1207.47 2474.07 L 1195.02 2485.74 L 1195.02 2492.74 L 1188.80 2498.18 L 1188.80 2505.19 L 1182.57 2510.63 L 1182.57 2517.63 L 1170.12 2529.30 L 1170.12 2536.31 L 1163.90 2541.75 L 1163.90 2548.76 L 1157.68 2554.20 L 1157.68 2561.20 L 1145.23 2572.87 L 1145.23 2579.88 L 1139.00 2585.32 L 1139.00 2592.32 L 1132.78 2597.77 L 1132.78 2604.77 L 1126.56 2610.22 L 1126.56 2617.22 L 1114.11 2628.89 L 1114.11 2635.89 L 1107.88 2641.34 L 1107.88 2648.34 L 1101.66 2653.79 L 1101.66 2660.79 L 1089.21 2672.46 L 1089.21 2679.46 L 1082.99 2684.91 L 1082.99 2691.91 L 1076.76 2697.35 L 1076.76 2704.36 L 1064.32 2716.03 L 1064.32 2723.03 L 1058.09 2728.48 L 1058.09 2735.48 L 1051.87 2740.92 L 1051.87 2760.37 L 1060.43 2768.93 L 1235.48 2768.93 L 1240.92 2762.71 L 1272.82 2762.71 L 1278.27 2768.93 L 1284.49 2762.71 L 1303.94 2762.71 L 1309.39 2768.93 L 1322.61 2768.93 L 1328.06 2762.71 L 1403.53 2762.71 L 1408.97 2768.93 L 1571.58 2768.93 L 1577.02 2762.71 L 1615.15 2762.71 L 1620.59 2768.93 L 1683.61 2768.93 L 1689.06 2762.71 L 1727.18 2762.71 L 1735.74 2754.15 L 1735.74 2747.15 L 1729.51 2741.70 L 1729.51 2734.70 L 1723.29 2729.25 L 1723.29 2722.25 L 1717.06 2716.80 L 1717.06 2709.80 L 1710.84 2704.36 L 1710.84 2697.35 L 1704.62 2691.91 L 1704.62 2684.91 L 1692.17 2673.24 L 1692.17 2666.23 L 1685.94 2660.79 L 1685.94 2653.79 L 1673.50 2642.12 L 1673.50 2635.11 L 1667.27 2629.67 L 1667.27 2622.67 L 1661.05 2617.22 L 1661.05 2610.22 L 1654.82 2604.77 L 1654.82 2597.77 L 1642.38 2586.10 L 1642.38 2579.10 L 1636.15 2573.65 L 1636.15 2566.65 L 1629.93 2561.20 L 1629.93 2554.20 L 1617.48 2542.53 L 1617.48 2535.53 L 1611.26 2530.08 L 1611.26 2523.08 L 1605.03 2517.63 L 1605.03 2510.63 L 1598.81 2505.19 L 1598.81 2498.18 L 1586.36 2486.51 L 1586.36 2479.51 L 1580.13 2474.07 L 1580.13 2467.06 L 1567.69 2455.39 L 1567.69 2448.39 L 1561.46 2442.95 L 1561.46 2435.94 L 1555.24 2430.50 L 1555.24 2423.50 L 1542.79 2411.83 L 1542.79 2404.82 L 1536.57 2399.38 L 1536.57 2392.38 L 1524.12 2380.71 L 1524.12 2373.70 L 1517.89 2368.26 L 1517.89 2361.26 L 1511.67 2355.81 L 1511.67 2348.81 L 1499.22 2337.14 L 1499.22 2330.13 L 1493.00 2324.69 L 1493.00 2317.69 L 1486.77 2312.24 L 1486.77 2305.24 L 1474.33 2293.57 L 1474.33 2286.57 L 1468.10 2281.12 L 1468.10 2274.12 L 1455.65 2262.45 L 1455.65 2255.45 L 1449.43 2250.00 L 1449.43 2243.00 L 1443.21 2237.55 L 1443.21 2230.55 L 1430.76 2218.88 L 1430.76 2211.88 L 1424.53 2206.43 L 1424.53 2199.43 L 1418.31 2193.98 L 1418.31 2186.98 L 1405.86 2175.31 L 1405.86 2168.31 Z" />
    <path d="M 2897.30 130.71 L 2666.23 130.71 L 2657.68 139.26 L 2657.68 308.09 L 2654.56 311.20 L 2647.56 311.20 L 2625.78 289.42 L 2625.78 282.42 L 2600.88 258.30 L 2600.88 251.30 L 2567.43 217.84 L 2560.43 217.84 L 2536.31 192.95 L 2529.30 192.95 L 2511.41 174.27 L 2504.41 174.27 L 2498.96 168.05 L 2491.96 168.05 L 2486.51 161.83 L 2479.51 161.83 L 2474.07 155.60 L 2467.06 155.60 L 2455.39 143.15 L 2442.17 143.15 L 2436.72 136.93 L 2429.72 136.93 L 2424.27 130.71 L 2411.05 130.71 L 2405.60 124.48 L 2392.38 124.48 L 2386.93 118.26 L 2373.70 118.26 L 2368.26 112.03 L 2348.81 112.03 L 2343.36 105.81 L 2317.69 105.81 L 2312.24 99.59 L 2261.67 99.59 L 2256.22 93.36 L 2193.21 93.36 L 2187.76 99.59 L 2130.96 99.59 L 2125.52 105.81 L 2093.62 105.81 L 2088.17 112.03 L 2068.72 112.03 L 2063.28 118.26 L 2043.83 118.26 L 2038.38 124.48 L 2025.16 124.48 L 2019.71 130.71 L 2006.48 130.71 L 2001.04 136.93 L 1994.04 136.93 L 1988.59 143.15 L 1975.36 143.15 L 1969.92 149.38 L 1962.91 149.38 L 1957.47 155.60 L 1950.47 155.60 L 1945.02 161.83 L 1938.02 161.83 L 1932.57 168.05 L 1925.57 168.05 L 1920.12 174.27 L 1913.12 174.27 L 1907.68 180.50 L 1900.67 180.50 L 1889.00 192.95 L 1882.00 192.95 L 1870.33 205.39 L 1863.33 205.39 L 1839.21 230.29 L 1832.21 230.29 L 1795.64 267.63 L 1788.64 267.63 L 1780.08 276.19 L 1780.08 283.20 L 1742.74 319.76 L 1742.74 326.76 L 1717.84 350.88 L 1717.84 357.88 L 1705.39 369.55 L 1705.39 376.56 L 1692.95 388.23 L 1692.95 395.23 L 1686.72 400.67 L 1686.72 407.68 L 1680.50 413.12 L 1680.50 420.12 L 1674.27 425.57 L 1674.27 432.57 L 1668.05 438.02 L 1668.05 445.02 L 1661.83 450.47 L 1661.83 457.47 L 1655.60 462.91 L 1655.60 469.92 L 1649.38 475.36 L 1649.38 482.37 L 1643.15 487.81 L 1643.15 501.04 L 1636.93 506.48 L 1636.93 519.71 L 1630.71 525.16 L 1630.71 538.38 L 1624.48 543.83 L 1624.48 557.05 L 1618.26 562.50 L 1618.26 575.73 L 1612.03 581.17 L 1612.03 600.62 L 1605.81 606.07 L 1605.81 631.74 L 1599.59 637.19 L 1599.59 662.86 L 1593.36 668.31 L 1593.36 712.66 L 1587.14 718.10 L 1587.14 942.95 L 1593.36 948.39 L 1593.36 980.29 L 1599.59 985.74 L 1599.59 1017.63 L 1605.81 1023.08 L 1605.81 1048.76 L 1612.03 1054.20 L 1612.03 1067.43 L 1618.26 1072.87 L 1618.26 1092.32 L 1624.48 1097.77 L 1624.48 1111.00 L 1630.71 1116.44 L 1630.71 1129.67 L 1636.93 1135.11 L 1636.93 1142.12 L 1643.15 1147.56 L 1643.15 1160.79 L 1649.38 1166.23 L 1649.38 1173.24 L 1655.60 1178.68 L 1655.60 1191.91 L 1661.83 1197.35 L 1661.83 1204.36 L 1668.05 1209.80 L 1668.05 1216.80 L 1674.27 1222.25 L 1674.27 1229.25 L 1686.72 1240.92 L 1686.72 1247.93 L 1692.95 1253.37 L 1692.95 1260.37 L 1705.39 1272.04 L 1705.39 1279.05 L 1717.84 1290.72 L 1717.84 1297.72 L 1730.29 1309.39 L 1730.29 1316.39 L 1755.19 1340.51 L 1755.19 1347.51 L 1801.09 1393.41 L 1808.09 1393.41 L 1844.66 1430.76 L 1851.66 1430.76 L 1869.55 1449.43 L 1876.56 1449.43 L 1882.00 1455.65 L 1889.00 1455.65 L 1900.67 1468.10 L 1907.68 1468.10 L 1913.12 1474.33 L 1920.12 1474.33 L 1925.57 1480.55 L 1932.57 1480.55 L 1938.02 1486.77 L 1945.02 1486.77 L 1950.47 1493.00 L 1957.47 1493.00 L 1962.91 1499.22 L 1969.92 1499.22 L 1975.36 1505.45 L 1988.59 1505.45 L 1994.04 1511.67 L 2001.04 1511.67 L 2006.48 1517.89 L 2019.71 1517.89 L 2025.16 1524.12 L 2044.61 1524.12 L 2050.05 1530.34 L 2063.28 1530.34 L 2068.72 1536.57 L 2094.40 1536.57 L 2099.84 1542.79 L 2137.97 1542.79 L 2143.41 1549.01 L 2287.34 1549.01 L 2292.79 1542.79 L 2324.69 1542.79 L 2330.13 1536.57 L 2355.81 1536.57 L 2361.26 1530.34 L 2374.48 1530.34 L 2379.93 1524.12 L 2393.15 1524.12 L 2398.60 1517.89 L 2411.83 1517.89 L 2417.27 1511.67 L 2430.50 1511.67 L 2435.94 1505.45 L 2442.95 1505.45 L 2448.39 1499.22 L 2455.39 1499.22 L 2460.84 1493.00 L 2467.84 1493.00 L 2473.29 1486.77 L 2480.29 1486.77 L 2485.74 1480.55 L 2492.74 1480.55 L 2504.41 1468.10 L 2511.41 1468.10 L 2523.08 1455.65 L 2530.08 1455.65 L 2554.20 1430.76 L 2561.20 1430.76 L 2607.11 1384.85 L 2607.11 1377.85 L 2625.78 1359.96 L 2625.78 1352.96 L 2644.45 1335.06 L 2644.45 1328.06 L 2647.56 1324.95 L 2654.56 1324.95 L 2657.68 1328.06 L 2657.68 1341.29 L 2663.90 1346.73 L 2663.90 1515.56 L 2657.68 1521.01 L 2657.68 1584.02 L 2651.45 1589.47 L 2651.45 1621.37 L 2645.23 1626.82 L 2645.23 1652.49 L 2639.00 1657.94 L 2639.00 1671.16 L 2632.78 1676.61 L 2632.78 1689.83 L 2626.56 1695.28 L 2626.56 1708.51 L 2620.33 1713.95 L 2620.33 1720.95 L 2614.11 1726.40 L 2614.11 1733.40 L 2607.88 1738.85 L 2607.88 1745.85 L 2601.66 1751.30 L 2601.66 1758.30 L 2589.21 1769.97 L 2589.21 1776.97 L 2564.32 1801.09 L 2564.32 1808.09 L 2536.31 1836.10 L 2529.30 1836.10 L 2505.19 1861.00 L 2498.18 1861.00 L 2486.51 1873.44 L 2479.51 1873.44 L 2467.84 1885.89 L 2460.84 1885.89 L 2455.39 1892.12 L 2448.39 1892.12 L 2442.95 1898.34 L 2429.72 1898.34 L 2424.27 1904.56 L 2411.05 1904.56 L 2405.60 1910.79 L 2392.38 1910.79 L 2386.93 1917.01 L 2373.70 1917.01 L 2368.26 1923.24 L 2342.58 1923.24 L 2337.14 1929.46 L 2305.24 1929.46 L 2299.79 1935.68 L 2137.19 1935.68 L 2131.74 1929.46 L 2099.84 1929.46 L 2094.40 1923.24 L 2068.72 1923.24 L 2063.28 1917.01 L 2043.83 1917.01 L 2038.38 1910.79 L 2018.93 1910.79 L 2013.49 1904.56 L 2000.26 1904.56 L 1994.81 1898.34 L 1987.81 1898.34 L 1982.37 1892.12 L 1975.36 1892.12 L 1969.92 1885.89 L 1962.91 1885.89 L 1957.47 1879.67 L 1950.47 1879.67 L 1945.02 1873.44 L 1938.02 1873.44 L 1932.57 1867.22 L 1925.57 1867.22 L 1920.12 1861.00 L 1913.12 1861.00 L 1901.45 1848.55 L 1894.45 1848.55 L 1882.78 1836.10 L 1875.78 1836.10 L 1857.88 1817.43 L 1850.88 1817.43 L 1814.32 1780.08 L 1807.31 1780.08 L 1801.09 1773.86 L 1795.64 1780.08 L 1788.64 1780.08 L 1649.38 1919.35 L 1649.38 1932.57 L 1668.05 1950.47 L 1668.05 1957.47 L 1695.28 1984.70 L 1702.28 1984.70 L 1732.62 2015.82 L 1739.63 2015.82 L 1757.52 2034.49 L 1764.52 2034.49 L 1776.19 2046.94 L 1783.20 2046.94 L 1794.87 2059.39 L 1801.87 2059.39 L 1813.54 2071.84 L 1820.54 2071.84 L 1825.99 2078.06 L 1832.99 2078.06 L 1838.43 2084.28 L 1845.44 2084.28 L 1850.88 2090.51 L 1857.88 2090.51 L 1863.33 2096.73 L 1870.33 2096.73 L 1875.78 2102.96 L 1889.00 2102.96 L 1894.45 2109.18 L 1901.45 2109.18 L 1906.90 2115.40 L 1920.12 2115.40 L 1925.57 2121.63 L 1938.80 2121.63 L 1944.24 2127.85 L 1957.47 2127.85 L 1962.91 2134.08 L 1976.14 2134.08 L 1981.59 2140.30 L 2001.04 2140.30 L 2006.48 2146.52 L 2025.93 2146.52 L 2031.38 2152.75 L 2063.28 2152.75 L 2068.72 2158.97 L 2106.85 2158.97 L 2112.29 2165.20 L 2318.46 2165.20 L 2323.91 2158.97 L 2362.03 2158.97 L 2367.48 2152.75 L 2393.15 2152.75 L 2398.60 2146.52 L 2418.05 2146.52 L 2423.50 2140.30 L 2442.95 2140.30 L 2448.39 2134.08 L 2461.62 2134.08 L 2467.06 2127.85 L 2480.29 2127.85 L 2485.74 2121.63 L 2498.96 2121.63 L 2504.41 2115.40 L 2511.41 2115.40 L 2516.86 2109.18 L 2530.08 2109.18 L 2535.53 2102.96 L 2542.53 2102.96 L 2547.98 2096.73 L 2554.98 2096.73 L 2560.43 2090.51 L 2567.43 2090.51 L 2572.87 2084.28 L 2579.88 2084.28 L 2585.32 2078.06 L 2592.32 2078.06 L 2597.77 2071.84 L 2604.77 2071.84 L 2616.44 2059.39 L 2623.44 2059.39 L 2635.11 2046.94 L 2642.12 2046.94 L 2653.79 2034.49 L 2660.79 2034.49 L 2691.13 2003.37 L 2698.13 2003.37 L 2737.81 1963.69 L 2737.81 1956.69 L 2768.93 1926.35 L 2768.93 1919.35 L 2781.38 1907.68 L 2781.38 1900.67 L 2793.83 1889.00 L 2793.83 1882.00 L 2806.28 1870.33 L 2806.28 1863.33 L 2812.50 1857.88 L 2812.50 1850.88 L 2824.95 1839.21 L 2824.95 1825.99 L 2831.17 1820.54 L 2831.17 1813.54 L 2837.40 1808.09 L 2837.40 1801.09 L 2843.62 1795.64 L 2843.62 1788.64 L 2849.84 1783.20 L 2849.84 1769.97 L 2856.07 1764.52 L 2856.07 1751.30 L 2862.29 1745.85 L 2862.29 1732.62 L 2868.52 1727.18 L 2868.52 1713.95 L 2874.74 1708.51 L 2874.74 1689.06 L 2880.96 1683.61 L 2880.96 1664.16 L 2887.19 1658.71 L 2887.19 1633.04 L 2893.41 1627.59 L 2893.41 1601.92 L 2899.64 1596.47 L 2899.64 1545.90 L 2905.86 1540.46 L 2905.86 139.26 Z" />
    <path d="M 2262.45 322.87 L 2267.89 329.10 L 2318.46 329.10 L 2323.91 335.32 L 2349.59 335.32 L 2355.03 341.55 L 2374.48 341.55 L 2379.93 347.77 L 2386.93 347.77 L 2392.38 353.99 L 2405.60 353.99 L 2411.05 360.22 L 2418.05 360.22 L 2423.50 366.44 L 2430.50 366.44 L 2435.94 372.67 L 2442.95 372.67 L 2448.39 378.89 L 2455.39 378.89 L 2460.84 385.11 L 2467.84 385.11 L 2479.51 397.56 L 2486.51 397.56 L 2504.41 416.23 L 2511.41 416.23 L 2551.87 456.69 L 2551.87 463.69 L 2576.76 487.81 L 2576.76 494.81 L 2589.21 506.48 L 2589.21 513.49 L 2595.44 518.93 L 2595.44 525.93 L 2601.66 531.38 L 2601.66 538.38 L 2607.88 543.83 L 2607.88 550.83 L 2614.11 556.28 L 2614.11 563.28 L 2620.33 568.72 L 2620.33 575.73 L 2626.56 581.17 L 2626.56 594.40 L 2632.78 599.84 L 2632.78 613.07 L 2639.00 618.52 L 2639.00 631.74 L 2645.23 637.19 L 2645.23 656.64 L 2651.45 662.09 L 2651.45 687.76 L 2657.68 693.21 L 2657.68 743.78 L 2663.90 749.22 L 2663.90 899.38 L 2657.68 904.82 L 2657.68 949.17 L 2651.45 954.62 L 2651.45 980.29 L 2645.23 985.74 L 2645.23 1005.19 L 2639.00 1010.63 L 2639.00 1030.08 L 2632.78 1035.53 L 2632.78 1048.76 L 2626.56 1054.20 L 2626.56 1061.20 L 2620.33 1066.65 L 2620.33 1079.88 L 2614.11 1085.32 L 2614.11 1092.32 L 2607.88 1097.77 L 2607.88 1104.77 L 2601.66 1110.22 L 2601.66 1117.22 L 2595.44 1122.67 L 2595.44 1129.67 L 2582.99 1141.34 L 2582.99 1148.34 L 2570.54 1160.01 L 2570.54 1167.01 L 2545.64 1191.13 L 2545.64 1198.13 L 2523.86 1219.92 L 2516.86 1219.92 L 2486.51 1251.04 L 2479.51 1251.04 L 2467.84 1263.49 L 2460.84 1263.49 L 2449.17 1275.93 L 2442.17 1275.93 L 2436.72 1282.16 L 2423.50 1282.16 L 2418.05 1288.38 L 2411.05 1288.38 L 2405.60 1294.61 L 2392.38 1294.61 L 2386.93 1300.83 L 2379.93 1300.83 L 2374.48 1307.05 L 2355.03 1307.05 L 2349.59 1313.28 L 2323.91 1313.28 L 2318.46 1319.50 L 2249.22 1319.50 L 2243.78 1325.73 L 2230.55 1325.73 L 2225.10 1319.50 L 2162.09 1319.50 L 2156.64 1313.28 L 2137.19 1313.28 L 2131.74 1307.05 L 2112.29 1307.05 L 2106.85 1300.83 L 2099.84 1300.83 L 2094.40 1294.61 L 2081.17 1294.61 L 2075.73 1288.38 L 2068.72 1288.38 L 2063.28 1282.16 L 2056.28 1282.16 L 2050.83 1275.93 L 2043.83 1275.93 L 2032.16 1263.49 L 2025.16 1263.49 L 2013.49 1251.04 L 2006.48 1251.04 L 1982.37 1226.14 L 1975.36 1226.14 L 1959.80 1210.58 L 1959.80 1203.58 L 1928.68 1173.24 L 1928.68 1166.23 L 1910.01 1148.34 L 1910.01 1141.34 L 1903.79 1135.89 L 1903.79 1128.89 L 1897.56 1123.44 L 1897.56 1116.44 L 1891.34 1111.00 L 1891.34 1103.99 L 1885.11 1098.55 L 1885.11 1091.55 L 1878.89 1086.10 L 1878.89 1079.10 L 1872.67 1073.65 L 1872.67 1066.65 L 1866.44 1061.20 L 1866.44 1047.98 L 1860.22 1042.53 L 1860.22 1029.30 L 1853.99 1023.86 L 1853.99 1010.63 L 1847.77 1005.19 L 1847.77 985.74 L 1841.55 980.29 L 1841.55 948.39 L 1835.32 942.95 L 1835.32 904.82 L 1829.10 899.38 L 1829.10 749.22 L 1835.32 743.78 L 1835.32 705.65 L 1841.55 700.21 L 1841.55 674.53 L 1847.77 669.09 L 1847.77 649.64 L 1853.99 644.19 L 1853.99 624.74 L 1860.22 619.29 L 1860.22 606.07 L 1866.44 600.62 L 1866.44 593.62 L 1872.67 588.17 L 1872.67 574.95 L 1878.89 569.50 L 1878.89 562.50 L 1885.11 557.05 L 1885.11 550.05 L 1891.34 544.61 L 1891.34 537.60 L 1897.56 532.16 L 1897.56 525.16 L 1903.79 519.71 L 1903.79 512.71 L 1916.23 501.04 L 1916.23 494.04 L 1934.91 476.14 L 1934.91 469.14 L 1994.04 410.01 L 2001.04 410.01 L 2018.93 391.34 L 2025.93 391.34 L 2037.60 378.89 L 2044.61 378.89 L 2050.05 372.67 L 2057.05 372.67 L 2062.50 366.44 L 2069.50 366.44 L 2074.95 360.22 L 2081.95 360.22 L 2087.40 353.99 L 2100.62 353.99 L 2106.07 347.77 L 2119.29 347.77 L 2124.74 341.55 L 2137.97 341.55 L 2143.41 335.32 L 2169.09 335.32 L 2174.53 329.10 L 2231.33 329.10 L 2236.77 322.87 Z" />
    <path d="M 325.99 205.39 L 301.87 230.29 L 294.87 230.29 L 242.74 282.42 L 242.74 289.42 L 224.07 307.31 L 224.07 314.32 L 211.62 325.99 L 211.62 332.99 L 205.39 338.43 L 205.39 345.44 L 192.95 357.11 L 192.95 364.11 L 186.72 369.55 L 186.72 376.56 L 180.50 382.00 L 180.50 395.23 L 174.27 400.67 L 174.27 407.68 L 168.05 413.12 L 168.05 420.12 L 161.83 425.57 L 161.83 445.02 L 155.60 450.47 L 155.60 463.69 L 164.16 472.25 L 177.39 472.25 L 182.83 478.48 L 202.28 478.48 L 207.73 484.70 L 220.95 484.70 L 226.40 490.92 L 252.07 490.92 L 257.52 497.15 L 276.97 497.15 L 282.42 503.37 L 301.87 503.37 L 307.31 509.60 L 326.76 509.60 L 332.21 515.82 L 351.66 515.82 L 357.11 522.04 L 364.11 522.04 L 378.89 507.26 L 378.89 494.04 L 385.11 488.59 L 385.11 481.59 L 391.34 476.14 L 391.34 469.14 L 403.79 457.47 L 403.79 450.47 L 416.23 438.80 L 416.23 431.79 L 462.91 385.11 L 469.92 385.11 L 481.59 372.67 L 488.59 372.67 L 494.04 366.44 L 501.04 366.44 L 506.48 360.22 L 513.49 360.22 L 518.93 353.99 L 525.93 353.99 L 531.38 347.77 L 544.61 347.77 L 550.05 341.55 L 563.28 341.55 L 568.72 335.32 L 581.95 335.32 L 587.40 329.10 L 613.07 329.10 L 618.52 322.87 L 675.31 322.87 L 680.76 316.65 L 731.33 316.65 L 736.77 322.87 L 793.57 322.87 L 799.01 329.10 L 818.46 329.10 L 823.91 335.32 L 843.36 335.32 L 848.81 341.55 L 862.03 341.55 L 867.48 347.77 L 874.48 347.77 L 879.93 353.99 L 893.15 353.99 L 898.60 360.22 L 905.60 360.22 L 917.27 372.67 L 924.27 372.67 L 935.94 385.11 L 942.95 385.11 L 977.18 419.35 L 977.18 426.35 L 995.85 444.24 L 995.85 451.24 L 1002.07 456.69 L 1002.07 463.69 L 1008.30 469.14 L 1008.30 476.14 L 1014.52 481.59 L 1014.52 494.81 L 1020.75 500.26 L 1020.75 519.71 L 1026.97 525.16 L 1026.97 550.83 L 1033.20 556.28 L 1033.20 712.66 L 1030.08 715.77 L 898.60 715.77 L 893.15 721.99 L 705.65 721.99 L 700.21 728.22 L 624.74 728.22 L 619.29 734.44 L 574.95 734.44 L 569.50 740.66 L 531.38 740.66 L 525.93 746.89 L 500.26 746.89 L 494.81 753.11 L 475.36 753.11 L 469.92 759.34 L 450.47 759.34 L 445.02 765.56 L 431.79 765.56 L 426.35 771.78 L 413.12 771.78 L 407.68 778.01 L 394.45 778.01 L 389.00 784.23 L 382.00 784.23 L 376.56 790.46 L 363.33 790.46 L 357.88 796.68 L 350.88 796.68 L 345.44 802.90 L 338.43 802.90 L 332.99 809.13 L 325.99 809.13 L 320.54 815.35 L 313.54 815.35 L 308.09 821.58 L 301.09 821.58 L 289.42 834.02 L 282.42 834.02 L 270.75 846.47 L 263.74 846.47 L 245.85 865.15 L 238.85 865.15 L 186.72 917.27 L 186.72 924.27 L 168.05 942.17 L 168.05 949.17 L 155.60 960.84 L 155.60 967.84 L 149.38 973.29 L 149.38 980.29 L 136.93 991.96 L 136.93 1005.19 L 130.71 1010.63 L 130.71 1017.63 L 124.48 1023.08 L 124.48 1030.08 L 118.26 1035.53 L 118.26 1048.76 L 112.03 1054.20 L 112.03 1067.43 L 105.81 1072.87 L 105.81 1098.55 L 99.59 1103.99 L 99.59 1148.34 L 93.36 1153.79 L 93.36 1235.48 L 99.59 1240.92 L 99.59 1279.05 L 105.81 1284.49 L 105.81 1303.94 L 112.03 1309.39 L 112.03 1328.84 L 118.26 1334.28 L 118.26 1347.51 L 124.48 1352.96 L 124.48 1359.96 L 130.71 1365.40 L 130.71 1378.63 L 136.93 1384.08 L 136.93 1391.08 L 143.15 1396.52 L 143.15 1403.53 L 155.60 1415.20 L 155.60 1422.20 L 161.83 1427.65 L 161.83 1434.65 L 180.50 1452.54 L 180.50 1459.54 L 245.07 1524.12 L 252.07 1524.12 L 269.97 1542.79 L 276.97 1542.79 L 288.64 1555.24 L 295.64 1555.24 L 301.09 1561.46 L 308.09 1561.46 L 313.54 1567.69 L 320.54 1567.69 L 325.99 1573.91 L 332.99 1573.91 L 338.43 1580.13 L 345.44 1580.13 L 350.88 1586.36 L 364.11 1586.36 L 369.55 1592.58 L 382.78 1592.58 L 388.23 1598.81 L 401.45 1598.81 L 406.90 1605.03 L 420.12 1605.03 L 425.57 1611.26 L 451.24 1611.26 L 456.69 1617.48 L 482.37 1617.48 L 487.81 1623.70 L 557.05 1623.70 L 562.50 1629.93 L 594.40 1629.93 L 599.84 1623.70 L 662.86 1623.70 L 668.31 1617.48 L 700.21 1617.48 L 705.65 1611.26 L 725.10 1611.26 L 730.55 1605.03 L 750.00 1605.03 L 755.45 1598.81 L 768.67 1598.81 L 774.12 1592.58 L 787.34 1592.58 L 792.79 1586.36 L 806.02 1586.36 L 811.46 1580.13 L 818.46 1580.13 L 823.91 1573.91 L 830.91 1573.91 L 836.36 1567.69 L 843.36 1567.69 L 848.81 1561.46 L 855.81 1561.46 L 861.26 1555.24 L 868.26 1555.24 L 879.93 1542.79 L 886.93 1542.79 L 898.60 1530.34 L 905.60 1530.34 L 929.72 1505.45 L 936.72 1505.45 L 976.40 1465.77 L 976.40 1458.77 L 1007.52 1428.42 L 1007.52 1421.42 L 1030.08 1399.64 L 1039.42 1408.97 L 1039.42 1428.42 L 1045.64 1433.87 L 1045.64 1453.32 L 1051.87 1458.77 L 1051.87 1471.99 L 1058.09 1477.44 L 1058.09 1490.66 L 1064.32 1496.11 L 1064.32 1503.11 L 1070.54 1508.56 L 1070.54 1515.56 L 1128.89 1573.91 L 1135.89 1573.91 L 1141.34 1580.13 L 1148.34 1580.13 L 1153.79 1586.36 L 1160.79 1586.36 L 1166.23 1592.58 L 1185.68 1592.58 L 1191.13 1598.81 L 1216.80 1598.81 L 1222.25 1605.03 L 1310.17 1605.03 L 1315.61 1598.81 L 1347.51 1598.81 L 1352.96 1592.58 L 1372.41 1592.58 L 1377.85 1586.36 L 1391.08 1586.36 L 1405.86 1571.58 L 1405.86 1396.52 L 1397.30 1387.97 L 1371.63 1387.97 L 1366.18 1394.19 L 1328.06 1394.19 L 1322.61 1387.97 L 1315.61 1387.97 L 1310.17 1381.74 L 1303.16 1381.74 L 1281.38 1359.96 L 1281.38 1346.73 L 1275.16 1341.29 L 1275.16 518.93 L 1268.93 513.49 L 1268.93 469.14 L 1262.71 463.69 L 1262.71 444.24 L 1256.48 438.80 L 1256.48 419.35 L 1250.26 413.90 L 1250.26 400.67 L 1244.04 395.23 L 1244.04 382.00 L 1237.81 376.56 L 1237.81 369.55 L 1231.59 364.11 L 1231.59 357.11 L 1225.36 351.66 L 1225.36 344.66 L 1219.14 339.21 L 1219.14 332.21 L 1212.91 326.76 L 1212.91 319.76 L 1200.47 308.09 L 1200.47 301.09 L 1188.02 289.42 L 1188.02 282.42 L 1104.77 199.17 L 1097.77 199.17 L 1086.10 186.72 L 1079.10 186.72 L 1067.43 174.27 L 1060.43 174.27 L 1054.98 168.05 L 1047.98 168.05 L 1042.53 161.83 L 1035.53 161.83 L 1030.08 155.60 L 1023.08 155.60 L 1017.63 149.38 L 1010.63 149.38 L 1005.19 143.15 L 998.18 143.15 L 992.74 136.93 L 979.51 136.93 L 974.07 130.71 L 960.84 130.71 L 955.39 124.48 L 942.17 124.48 L 936.72 118.26 L 923.50 118.26 L 918.05 112.03 L 898.60 112.03 L 893.15 105.81 L 861.26 105.81 L 855.81 99.59 L 811.46 99.59 L 806.02 93.36 L 643.41 93.36 L 637.97 99.59 L 593.62 99.59 L 588.17 105.81 L 562.50 105.81 L 557.05 112.03 L 531.38 112.03 L 525.93 118.26 L 512.71 118.26 L 507.26 124.48 L 487.81 124.48 L 482.37 130.71 L 469.14 130.71 L 463.69 136.93 L 456.69 136.93 L 451.24 143.15 L 438.02 143.15 L 432.57 149.38 L 425.57 149.38 L 420.12 155.60 L 413.12 155.60 L 407.68 161.83 L 400.67 161.83 L 395.23 168.05 L 388.23 168.05 L 382.78 174.27 L 375.78 174.27 L 370.33 180.50 L 363.33 180.50 L 351.66 192.95 L 344.66 192.95 L 332.99 205.39 Z" />
    <path d="M 1033.20 923.50 L 1033.20 1079.88 L 1026.97 1085.32 L 1026.97 1117.22 L 1020.75 1122.67 L 1020.75 1142.12 L 1014.52 1147.56 L 1014.52 1160.79 L 1008.30 1166.23 L 1008.30 1173.24 L 1002.07 1178.68 L 1002.07 1191.91 L 995.85 1197.35 L 995.85 1204.36 L 989.63 1209.80 L 989.63 1216.80 L 977.18 1228.48 L 977.18 1235.48 L 958.51 1253.37 L 958.51 1260.37 L 905.60 1313.28 L 898.60 1313.28 L 880.71 1331.95 L 873.70 1331.95 L 862.03 1344.40 L 855.03 1344.40 L 849.59 1350.62 L 842.58 1350.62 L 837.14 1356.85 L 830.13 1356.85 L 824.69 1363.07 L 817.69 1363.07 L 812.24 1369.29 L 805.24 1369.29 L 799.79 1375.52 L 786.57 1375.52 L 781.12 1381.74 L 767.89 1381.74 L 762.45 1387.97 L 749.22 1387.97 L 743.78 1394.19 L 718.10 1394.19 L 712.66 1400.41 L 680.76 1400.41 L 675.31 1406.64 L 556.28 1406.64 L 550.83 1400.41 L 525.16 1400.41 L 519.71 1394.19 L 500.26 1394.19 L 494.81 1387.97 L 487.81 1387.97 L 482.37 1381.74 L 469.14 1381.74 L 463.69 1375.52 L 456.69 1375.52 L 451.24 1369.29 L 444.24 1369.29 L 432.57 1356.85 L 425.57 1356.85 L 378.89 1310.17 L 378.89 1303.16 L 366.44 1291.49 L 366.44 1284.49 L 360.22 1279.05 L 360.22 1272.04 L 353.99 1266.60 L 353.99 1253.37 L 347.77 1247.93 L 347.77 1228.48 L 341.55 1223.03 L 341.55 1141.34 L 347.77 1135.89 L 347.77 1116.44 L 353.99 1111.00 L 353.99 1097.77 L 360.22 1092.32 L 360.22 1085.32 L 366.44 1079.88 L 366.44 1072.87 L 378.89 1061.20 L 378.89 1054.20 L 431.79 1001.30 L 438.80 1001.30 L 450.47 988.85 L 457.47 988.85 L 462.91 982.62 L 469.92 982.62 L 475.36 976.40 L 482.37 976.40 L 487.81 970.18 L 494.81 970.18 L 500.26 963.95 L 513.49 963.95 L 518.93 957.73 L 532.16 957.73 L 537.60 951.50 L 557.05 951.50 L 562.50 945.28 L 581.95 945.28 L 587.40 939.06 L 625.52 939.06 L 630.96 932.83 L 675.31 932.83 L 680.76 926.61 L 806.02 926.61 L 811.46 920.38 L 1030.08 920.38 Z" />
  </g>
</svg>
